/* XPM */
static char *cc966bfcb68445718d6703343d11e18ecQUIKlYE5BeFyWoe[] = {
/* columns rows colors chars-per-pixel */
"64 64 157 2 ",
"   c #FFFFFF",
".  c #252420",
"X  c #272621",
"o  c #282722",
"O  c #292923",
"+  c #2C2B26",
"@  c #2D2C26",
"#  c #2E2C27",
"$  c #302E29",
"%  c #312F2A",
"&  c #32302B",
"*  c #33312C",
"=  c #34322C",
"-  c #35332D",
";  c #37332F",
":  c #36342E",
">  c #37352F",
",  c #383630",
"<  c #393731",
"1  c #3A3832",
"2  c #3B3932",
"3  c #3C3A33",
"4  c #3D3B34",
"5  c #3E3D35",
"6  c #3F3E36",
"7  c #414038",
"8  c #434139",
"9  c #44423A",
"0  c #44433A",
"q  c #45443B",
"w  c #48473E",
"e  c #49483E",
"r  c #4B4940",
"t  c #4C4A41",
"y  c #4D4B42",
"u  c #4E4C43",
"i  c #4F4D44",
"p  c #504E44",
"a  c #514F45",
"s  c #525046",
"d  c #535147",
"f  c #545248",
"g  c #555349",
"h  c #56544A",
"j  c #58564B",
"k  c #5A584D",
"l  c #5B584E",
"z  c #5C594F",
"x  c #5C5A4F",
"c  c #5D5B50",
"v  c #5E5C50",
"b  c #605E52",
"n  c #615F53",
"m  c #626054",
"M  c #636155",
"N  c #646255",
"B  c #656356",
"V  c #676558",
"C  c #69675A",
"Z  c #6A685B",
"A  c #6B695B",
"S  c #6D6A5D",
"D  c #6D6B5D",
"F  c #6E6C5E",
"G  c #6F6D5F",
"H  c #706E60",
"J  c #716F61",
"K  c #727061",
"L  c #737162",
"P  c #747263",
"I  c #757364",
"U  c #767465",
"Y  c #777566",
"T  c #787667",
"R  c #797767",
"E  c #7A7868",
"W  c #7B7969",
"Q  c #7C7A6A",
"!  c #7D7B6B",
"~  c #7E7C6C",
"^  c #7F7D6D",
"/  c #817F6E",
"(  c #82806F",
")  c #838170",
"_  c #848271",
"`  c #858372",
"'  c #868473",
"]  c #888674",
"[  c #898675",
"{  c #8A8776",
"}  c #8B8877",
"|  c #8B8977",
" . c #8E8C79",
".. c #8F8D7A",
"X. c #908E7B",
"o. c #918F7C",
"O. c #92907D",
"+. c #94927F",
"@. c #969480",
"#. c #9D9B86",
"$. c #A6A48E",
"%. c #A9A790",
"&. c #ACAA93",
"*. c #AEAC95",
"=. c #B2B098",
"-. c #B5B39B",
";. c #B7B59C",
":. c #B9B69E",
">. c #BBB8A0",
",. c #BCBAA1",
"<. c #BDBBA2",
"1. c #BEBBA2",
"2. c #BEBCA2",
"3. c #C0BEA4",
"4. c #C1BFA5",
"5. c #C2C0A6",
"6. c #C3C1A7",
"7. c #C4C2A8",
"8. c #C5C3A8",
"9. c #C7C3A9",
"0. c #C6C4A9",
"q. c #C7C5AA",
"w. c #C8C6AB",
"e. c #C8C7AB",
"r. c #C9C7AC",
"t. c #CAC8AD",
"y. c #CBCAAE",
"u. c #CCCBAE",
"i. c #CECDB0",
"p. c #CFCDB1",
"a. c #CFCEB1",
"s. c #D0D0B2",
"d. c #D1D1B3",
"f. c #D2D2B4",
"g. c #D4D2B5",
"h. c #D4D3B5",
"j. c #D6D4B7",
"k. c #D7D4B8",
"l. c #D8D5B9",
"z. c #D9D6BA",
"x. c #DAD8BA",
"c. c #DBD9BB",
"v. c #DBDABB",
"b. c #DCDABC",
"n. c #DDDBBD",
"m. c #DEDCBE",
"M. c #DEDDBE",
"N. c #DFDEBF",
"B. c #E1DFC0",
"V. c #E3E2C2",
"C. c #E6E4C5",
"Z. c #E7E5C5",
"A. c #E8E8C6",
"S. c #F0EECD",
"D. c #F1EFCE",
"F. c #F1F0CE",
"G. c #FAFAD6",
/* pixels */
"                                                      n G B J J j c o.}                                                         ",
"                                                g w K z.C.D.G.G.r.;.4.r.T W X./                                                 ",
"                                        % % d G V y.k.! W } } } S I n B u.n.z.S , , :                                           ",
"                                    J n +.+.2 T r.C T P T U ! ! S I V S n W m 5., , D.C.M.,                                     ",
"                                t p _ C.D.D.! * I W _ ( U K { { J K G G m K K 2 <.<.M.' X.n.d.%                                 ",
"                            t d T k.z.) ! ! <.# ) / I ! U V _ _ G K J G S x x = y.y.) K W G K r.p                               ",
"                          * J h.v.W _ T _ _ S 8.* G K T W W I I ~ v S B B x % w.<.<.J U ! T / S y.*                             ",
"                    g g j S % d./ T I Z T T K j.% % c G V I V V G C V k m % % 2.c c K G ) T I P & Z ( (                         ",
"                  j { { v.w.& ! W ( T V _ _ T J 5.* g G = 3 X X 5 : # B n % c w.J J ( V T ! U ~ % G z.z.V                       ",
"                t J d.d.M.G ! 4 W / T P G G C m 2.= 2 2               = & & m 4.( ( ( C Z T G 2 I d.' ' n.d                     ",
"              w S a.T T T ! G = B W G C m m B : %                           & 2 W W Z G G U c : z.G K K ( j.w                   ",
"            3 V r.) U U ! K G T : J C J 2 2 =                                   , , : K m T = v.G K P P T T a.0                 ",
"          0 j y.K I T T J J I T 2 x : 3                                               : , c  .w.J U ! ! ( K J z.q               ",
"          q =.d.T P K K U T G m U 2                                                       , G J K K B B T T V T 5.3             ",
"        : 4 m c B Z K K I S S B =                                                           : Z V J G G G J m J u.,             ",
"      t z., : j S G B B S G m &                                                               = S m C C G m c h , 2 d           ",
"      w r.w.K * , C g g c G 2                                                                   , J m m B c : } d.z.p           ",
"      p y.K d.W ! * p p j 2                                                                       : k k c 2 B.j.G G k.u         ",
"    j w.T G G d.A.K , , 5                                                                           , , 2 v.{ W / J y.0         ",
"    d 0.J I G V ~ h.2 2                                                                                 : G ! J ~ T a.n         ",
"    h.~ P W Z W ~ J = =                                                                                 = C T ! W G W V.t t     ",
"x x n.O.( K U ( ~ 2                                                                                       : G ( K Z U k.j j     ",
"d d a.! W S B V I 2                                                                                       = B J n n C T j.j.d   ",
": : U G T B c J v 2                                                                                       : B S x n C J 8.8.2   ",
"a.a.: & : k i G 2                                                                                           : j e d 2 4 / / w   ",
"W W f.5.% * = , ,                                                                                           O , = J F.M.M.M.G 2 ",
"G G T T a.w.m * *                                                                                           O 2 0.a._ ~ ~ ~ I k ",
"P P ! { { P w.#                                                                                               : >.J W J ( ( U p ",
"Z Z C I T Z x #                                                                                               : -.K K J W W K h ",
"S S J ~ _ Z G ,                                                                                               * w.G J ' K K T p ",
"U U P ~ U G T =                                                                                               2 y.v n T G G Z k ",
"n n C k x G Z *                                                                                               : y.! m S J J m 7 ",
"k k p U c m x ,                                                                                               = 8.J V _ p p x w ",
"k k p U c m x ,                                                                                               = 8.J V _ p p x w ",
"k k g T d B q *                                                                                               : *.V c K w w p e ",
", , 5 4 * , : *                                                                                               : % : = # = = , , ",
"y.y.M.w.a.f.V ,                                                                                               : 5.v.z.w.r.r.z.p ",
"K K ! ~ +.J m :                                                                                               , y.W ~ K T T _ c ",
"W W B Z J G Z &                                                                                               2 2.n B I ( ( K j ",
"P P K K T V B :                                                                                               : h.K U U T T W x ",
"x x J P m k G =                                                                                               & a.G T P J J Z g ",
"V V B k n W W *                                                                                               * z.( m m Z Z B w ",
"j j i J v W P %                                                                                               : <.m x P p p Z h ",
"h h u B n T e =                                                                                               % #.m x m u u n u ",
": : % % : , : ,                                                                                               : 2 = % % % % : : ",
"8.8.d.u.h.4.x :                                                                                               3 0.f.d.a.a.a.y.d ",
"G G ~ / ! J j ,                                                                                               , 8.n T K W W P e ",
"S S ! U K T c &                                                                                               3 r.J S B T T W w ",
"K K J S T K G *                                                                                               & a.U I { I I W t ",
"S S ) I V v V *                                                                                               & 0.S J / K K m w ",
"S S ( V c T S *                                                                                               * <.P V B G G c 0 ",
"x x k T B C c &                                                                                               = r.S c G w w C u ",
"c c p c d Z q #                                                                                               * &.S g U w w d q ",
"2 2 2 : = : # =                                                                                               : : % : 2 : : & 2 ",
"2.2.4.r.5.5.G 2                                                                                               2 5.>.:.;.<.<.-.2 ",
"Z Z k n S B B =                                                                                               , ;.x x c v v Z , ",
"n n g x V m m ,                                                                                               : <.c j c d d Z , ",
"p p d p x j d 5                                                                                               * %.d n m k k r & ",
"r r d q t p t ,                                                                                               , $.j n x c c 0 & ",
"4 4 e e 5 q e *                                                                                               2 &.w w i u u 5 % ",
"5 5 2 w : 7 q #                                                                                               : @.5 & 3 4 4 7 + ",
"= = + 4 * 5 : #                                                                                               :  .q % 2 * * , o ",
"% % & : 2 = : ,                                                                                               * : : & 2 * * = X ",
"2 2 * : 2 2 , =                                                                                               2 = & % * % % = = "
};
