/* XPM */
static char *_d5e3d2b59b14768a63010468fdb91b0lKbcLMib1od5qUNv[] = {
/* columns rows colors chars-per-pixel */
"120 120 31 1 ",
"  c black",
". c #262222",
"X c #272E33",
"o c #2B3235",
"O c #2C3336",
"+ c #2F373B",
"@ c #373D40",
"# c #3C4344",
"$ c #42484B",
"% c #464E4E",
"& c #575B5A",
"* c #6B6D69",
"= c #727877",
"- c #7A7F7D",
"; c #17FF00",
": c #828178",
"> c #8F8E87",
", c #A09B91",
"< c #A2A49D",
"1 c #ACACA5",
"2 c #BAB6A8",
"3 c #C5BDAC",
"4 c #C1C0B6",
"5 c #CAC8BD",
"6 c #D4CAB8",
"7 c #DBD1BE",
"8 c #DDD2BF",
"9 c #FFFFFF",
"0 c #FFFFFF",
"q c #E8DCC8",
"w c #F2E5D0",
/* pixels */
"999999999999999999999999999999999999999999999999999999999999999999999999999999999999999999999999999999999999999999999999",
"999999999999999999999999999999999999999999999999999999999999999999999999999999999999999999999999999999999999999999999999",
"999999999999999999999999999999999999999999999999999999999999999999999999999999999999999999999999999999999999999999999999",
"999999999999999999999999999999999999999999999999999999999999999999999999999999999999999999999999999999999999999999999999",
"999999999999999999999999999999999999999999999999999999999999999999999999999999999999999999999999999999999999999999999999",
"999999999999999999999999999999999999999999999999999999999999999999999999999999999999999999999999999999999999999999999999",
"999999999999999999999999999999900009987877877787888778778787777777777778778887778778900000009999999999999999999999999999",
"9999999999999999999999999999999000098qqqqqqqqqqqqqqqqqqqqqqqqqqqqqqqqqqqqqqqqqqqqqq8900000009999999999999999999999999999",
"999999999999999999999999999999900998OOOOOOOOOOOOOOOOOOOOOOOOOOOOOOOOOOOOOOOOOOOOOOOO080000999999999999999999999999999999",
"999999999999999999999999999999900900O@+++++++++++++++++++++++++++++++++++OOOOOOO++@O608900999999999999999999999999999999",
"99999999999999999999999999999999998OO%%%%%%%%%%%%%%%%%%%%%%%%%%%%%%%%%%%%%%%%%%%%%%OO50890999999999999999999999999999999",
"99999999999999999999999999999999907O#%OOOOOOOOOOOOOOOOOOOOOOOOOOOOOOOOOOOOOOOOOOOO%$O3q890999999999999999999999999999999",
"99999999999999999999999999999999907O#%OXooooooooooooooooooooooooooooooooooooOoooO+$$O3q890009999999999999999999999999999",
"99999999999999999999999999999999907O#$OOXOOOOoOOOOOOooOOOOOOOOOOOOOOOOOOOOOOOOOOO+$#O30890099999999999999999999999999999",
"99999999999999999999999999999990907O#%OOOOOOOOOOOOOOOOOOOOOOOOOOOOOOOOOOoOOOOOOOO+$#O3q890999999999999999999999999999999",
"99999999999999999999999999999990907O#%OOOOOOOOOOOOOOOOOOOOOOOOOOOOOOOOOOOOOOOOOOO+$$O3q990999999999999999999999999999999",
"99999999999999999999999999999999907O#%OOOOOOOOOOOOOOOOOOOOOOOOOOOOOOOOOOOOOOOOOOO+$$O3q899999999999999999999999999999999",
"99999999999999999999999999999990907O@%OOOOOoOOOOOOOOOOOOOOOOOOOoOOOOOOOOOOooOoOOO+$$O3q809999999999999999999999999999999",
"99999999999999999999999999999990907O@$OOOOooOOOOOOOOOOOOOOOOOOOoOOOOOooOOOOOOOoOO+$$O3q900009999999999999999999999999999",
"99999999999999999999999999999990007O@$OOOwwwwwwwwwwwwwwwwwwwwwwwwwwwwwwwwwwwwwOOO+$$O3q800009999999999999999999999999999",
"99999999999999999999999999999990007O@$OoOw;;;;;;;;;OOOOOOOOOOOOOOOOOOOOOOOOOOwOOO+$$O3q800009999999999999999999999999999",
"99999999999999999999999999999990907O@$OoOw;;;;;;;;;OOOOOOOOOOOoOOOOOOOOOOOOOOwOOO+$$O3q900009999999999999999999999999999",
"99999999999999999999999999999990907O#%OoOw;;;;;;;;;OOOOOOOOOOOOOOOOoOOOoOOOoOwOOO+$$O3q800009999999999999999999999999999",
"99999999999999999999999999999990907O#%OoOw;;;;;;;;;OOOOOOOOOOOOOOOOOOOOOOOOOOwOOO+%$O3q890009999999999999999999999999999",
"99999999999999999999999999999990007O@%OoOwwwwwwwwwwwwwwwwwwwwwwwwwwwwwwwwwwwwwOOO+$$O3q890099999999999999999999999999999",
"99999999999999999999999999999990907O#%OOOOOOOOOOOOOOOOOOOOOOOOOOOOOOOOOOOOOOOOOOO+$$O3q800099999999999999999999999999999",
"99999999999999999999999999999990907O@%OoOOOOOOOOOOOOOoOOOOOOOOOOOOOOOOOOOOOOOOOOO+$$O3q800099999999999999999999999999999",
"99999999999999999999999999999990907O@%OoOOOOOOOOOOOOOooOOOOOOooOOOOOOOOOoOOoOOOOO+$$O3q890909999999999999999999999999999",
"99999999999999999999999999999990907O@%OoOOOOOOOOOOOOooOOOOOOOOoOOOOOOOOOOOOoOOOOO+$$O3q899999999999999999999999999999999",
"99999999999999999999999999999990907O@%OoOOOOOOoOOOOOOOOOOoOOOOOOOOOOOOOOOOOoOOOOO+$$O3q800009999999999999999999999999999",
"99999999999999999999999999999990907O@%OoOOOOOOOOOOOOOOOOOOOOOOOOOOooOOOOOOOOOOOOO+$$O3q800009999999999999999999999999999",
"99999999999999999999999999999990907O@%OoOOOOOOOOoOOooOOOOoOOOooOOOoOOOOOOOOOOOOOO+$#O3q800999999999999999999999999999999",
"99999999999999999999999999999990907O@$OoOOOooOOOooOoooooOoOOOOooOooOOoOoooooOooOO+$$O3q800009999999999999999999999999999",
"99999999999999999999999999999990907O@$OoOOOOOOOOOOOOOOOOOOOOOOoOOOOOOooOOOOOOOOOO+$$O3q800009999999999999999999999999999",
"99999999999999999999999999999999907O@%OooOOOoooOoOOooooOOoOoOooOOOooOOoOoOooOOOOO+$$O3q800009999999999999999999999999999",
"99999999999999999999999999999990907O@%OOOOOOOOOOOOOOOOOOOOOOOOOOOOOOOOOOOOOOOOOOOO%$O30899999999999999999999999999999999",
"99999999999999999999999999999999907O#%$$$$$$$$$$$$$$$$$$$$$$#$$$$$$$$$$$$$$$$$$$$$%$O3q899999999999999999999999999999999",
"99999999999999999999999999999999907O#%$$$$$$$$$$$$$$#$$$$$$$$$#$#$#$$$$$$$$$$$$$$$%$O30899999999999999999999999999999999",
"99999999999999999999999999999999907XXXXXXXXXXXXXXXXXXXXXXXXXXXXXXXXXXXXXXXXXXXXXXXXXO30899999999999999999999999999999999",
"99999999999999999999999999999999807X>1<<<<<<<<<<<<<<<<<<<<<<1<<<<<<<<<<<<<<<<<<<<<<<O20799999999999999999999999999999999",
"99999999999999999999999999999998787X175555555555555555555555555555555555555555555554O20778789999999999999999999999999999",
"99999999999999999999999999999998797X15555555555555555555555++55555555555555555555552O20778879999999999999999999999999999",
"99999999999999999999999999999998787X25555555555555555555555++55555555555555555555555O20778889999999999999999999999999999",
"99999999999999999999999999999999889XX2755555555555555555555555555555555555555555554OO78889999999999999999999999999999999",
"99999999999999999999999999999999999qXXXXXXXXXXXXXXXXXX%%%%%%&%%%%%XXXXXXXXXXXXXXXXXO008999999999999999999999999999999999",
"999999999999999999999999999999900998q<,,,,,,,,,,,,,,<X#-========-&X,,,,,,,,,,,,,,,,q089999099999999999999999999999999999",
"9999999999999999999999999999999000098qqqqqqqqqqqqqqqwX&1<<<<<<<<1:Xqqqqqqqqqqqqqqqq8900000999999999999999999999999999999",
"9999999999999999999999999999999009999777777777777776wX&4222222214>Xq7777777777777778999990999999999999999999999999999999",
"999999999999999999999999999999999999898888888877777qXX154444444442XXX788888888778888999999999999999999999999999999999999",
"999999999999999999999999999999999999988888888788786wX*944444444445,Xq788888888878888990999999999999999999999999999999999",
"99999999999999999999999999999999999999888888888887wXX24444444444443XXq88888888888889909990999999999999999999999999999999",
"999                                               XX2544444444444454XX                                                  ",
"99 .................................33333333333336XXXXXXXXXXXXXXXXXXXX333333333333337...................................",
"9 ..................................66322322222222,::::::::::::::::::>222222222222667...................................",
" ....................................066666666666678888788878877788787666666666666......................................",
"                                                                                                                        ",
"                                                                                                                        ",
"                                                                                                                        ",
"                                                                                                                        ",
"                                                                                                                        ",
"                                                                                                                        ",
"                                                                                                                        ",
"9999999999999999999        ... 99999999999999999999999999999999999999999999999999999999999       ... 9999999999999999999",
"9999999999999999999        ... 99999999999999999999999999999999999999999999999999999999999       ... 9999999999999999999",
"9999999999999999999        ... 99999999999999999999999999999999999999999999999999999999999       ... 9999999999999999999",
"9999999999999999999        ... 99999999999999999999999999999999999999999999999999999999999       ... 9999999999999999999",
"9999999999999999999        ... 99999999999999999999999999999999999999999999999999999999999       ... 9999999999999999999",
"9999999999999999999        ... 99999999999999999999999999999999999999999999999999999999999       ... 9999999999999999999",
"9999999999999999999        ... 99999999999999999999999999999999999999999999999999999999999       ... 9999999999999999999",
"9999999999999999999        ... 99999999999999999999999999999999999999999999999999999999999       ... 9999999999999999999",
"9999999999999999999        ... 99999999999999999999999999999999999999999999999999999999999       ... 9999999999999999999",
"9999999999999999999        ... 99999999999999999999999999999999999999999999999999999999999       ... 9999999999999999999",
"9999999999999999999        ... 99999999999999999999999999999999999999999999999999999999999       ... 9999999999999999999",
"9999999999999999999        ... 99999999999999999999999999999999999999999999999999999999999       ... 9999999999999999999",
"9999999999999999999        ... 99999999999999999999999999999999999999999999999999999999999       ... 9999999999999999999",
"9999999999999999999        ... 99999999999999999999999999999999999999999999999999999999999       ... 9999999999999999999",
"9999999999999999999        ... 99999999999999999999999999999999999999999999999999999999999       ... 9999999999999999999",
"9999999999999999999        ... 99999999999999999999999999999999999999999999999999999999999       ... 9999999999999999999",
"9999999999999999999        ... 99999999999999999999999999999999999999999999999999999999999       ... 9999999999999999999",
"9999999999999999999        ... 99999999999999999999999999999999999999999999999999999999999       ... 9999999999999999999",
"9999999999999999999        ... 99999999999999999999999999999999999999999999999999999999999       ... 9999999999999999999",
"9999999999999999999        ... 99999999999999999999999999999999999999999999999999999999999       ... 9999999999999999999",
"9999999999999999999        ... 99999999999999999999999999999999999999999999999999999999999       ... 9999999999999999999",
"9999999999999999999        ... 99999999999999999999999999999999999999999999999999999999999       ... 9999999999999999999",
"9999999999999999999        ... 99999999999999999999999999999999999999999999999999999999999       ... 9999999999999999999",
"9999999999999999999        ... 99999999999999999999999999999999999999999999999999999999999       ... 9999999999999999999",
"9999999999999999999        ... 99999999999999999999999999999999999999999999999999999999999       ... 9999999999999999999",
"9999999999999999999        ... 99999999999999999999999999999999999999999999999999999999999       ... 9999999999999999999",
"9999999999999999999        ... 99999999999999999999999999999999999999999999999999999999999       ... 9999999999999999999",
"9999999999999999999        ... 99999999999999999999999999999999999999999999999999999999999       ... 9999999999999999999",
"9999999999999999999        ... 99999999999999999999999999999999999999999999999999999999999       ... 9999999999999999999",
"9999999999999999999        ... 99999999999999999999999999999999999999999999999999999999999       ... 9999999999999999999",
"9999999999999999999        ... 99999999999999999999999999999999999999999999999999999999999       ... 9999999999999999999",
"9999999999999999999        ... 99999999999999999999999999999999999999999999999999999999999       ... 9999999999999999999",
"9999999999999999999        ... 99999999999999999999999999999999999999999999999999999999999       ... 9999999999999999999",
"9999999999999999999        ... 99999999999999999999999999999999999999999999999999999999999       ... 9999999999999999999",
"9999999999999999999        ... 99999999999999999999999999999999999999999999999999999999999       ... 9999999999999999999",
"9999999999999999999        ... 99999999999999999999999999999999999999999999999999999999999       ... 9999999999999999999",
"9999999999999999999        ... 99999999999999999999999999999999999999999999999999999999999       ... 9999999999999999999",
"9999999999999999999        ... 99999999999999999999999999999999999999999999999999999999999       ... 9999999999999999999",
"9999999999999999999        ... 99999999999999999999999999999999999999999999999999999999999       ... 9999999999999999999",
"9999999999999999999        ... 99999999999999999999999999999999999999999999999999999999999       ... 9999999999999999999",
"9999999999999999999        ... 99999999999999999999999999999999999999999999999999999999999       ... 9999999999999999999",
"9999999999999999999        ... 99999999999999999999999999999999999999999999999999999999999       ... 9999999999999999999",
"9999999999999999999        ... 99999999999999999999999999999999999999999999999999999999999       ... 9999999999999999999",
"9999999999999999999        ... 99999999999999999999999999999999999999999999999999999999999       ... 9999999999999999999",
"9999999999999999999        ... 99999999999999999999999999999999999999999999999999999999999       ... 9999999999999999999",
"9999999999999999999        ... 99999999999999999999999999999999999999999999999999999999999       ... 9999999999999999999",
"9999999999999999999        ... 99999999999999999999999999999999999999999999999999999999999       ... 9999999999999999999",
"9999999999999999999        ... 99999999999999999999999999999999999999999999999999999999999       ... 9999999999999999999",
"9999999999999999999        ... 99999999999999999999999999999999999999999999999999999999999       ... 9999999999999999999",
"9999999999999999999        ... 99999999999999999999999999999999999999999999999999999999999       ... 9999999999999999999",
"9999999999999999999        ... 99999999999999999999999999999999999999999999999999999999999       ... 9999999999999999999",
"9999999999999999999        ... 99999999999999999999999999999999999999999999999999999999999       ... 9999999999999999999",
"9999999999999999999        ... 99999999999999999999999999999999999999999999999999999999999       ... 9999999999999999999",
"9999999999999999999        ... 99999999999999999999999999999999999999999999999999999999999       ... 9999999999999999999",
"9999999999999999999        ... 99999999999999999999999999999999999999999999999999999999999       ... 9999999999999999999",
"9999999999999999999        .. 999999999999999999999999999999999999999999999999999999999999       .. 99999999999999999999",
"9999999999999999999        . 9999999999999999999999999999999999999999999999999999999999999       . 999999999999999999999",
"9999999999999999999         99999999999999999999999999999999999999999999999999999999999999        9999999999999999999999"
};
